<svg xmlns="http://w3.org" viewBox="0 0 24 24" width="24" height="24" fill="currentColor">
  <path d="M12.525.02c1.31-.02 2.61-.01 3.91-.02.08 1.53.63 3.03 1.6 4.19 1.11 1.24 2.69 1.95 4.34 2.14v3.89c-1.83-.06-3.6-.69-4.98-1.92-.08-.07-.15-.16-.25-.27v6.62c.04 2.19-.6 4.41-1.99 6.09-1.69 2.05-4.39 3.19-7.05 2.91-2.9-.19-5.61-2.12-6.69-4.85-1.28-3.04-.6-6.75 1.71-9.08 1.77-1.84 4.36-2.58 6.8-1.97v3.9c-1.44-.45-3.08-.09-4.16.94-1.23 1.13-1.61 3.01-1.01 4.58.57 1.56 2.18 2.64 3.84 2.53 1.87.05 3.59-1.22 3.99-3.03.11-.42.13-.86.13-1.29V0z"/>
</svg>