<svg xmlns="http://w3.org" viewBox="0 0 24 24" width="24" height="24" fill="currentColor">
  <path d="M.057 24l1.687-6.163c-1.041-1.804-1.588-3.849-1.587-5.946C.06 5.348 5.397.01 12.008.01c3.202.001 6.212 1.248 8.477 3.517 2.266 2.268 3.507 5.28 3.505 8.484-.004 6.657-5.34 11.997-11.953 11.997-2.005-.001-3.973-.502-5.731-1.455L0 24zm6.59-4.846c1.657.983 3.283 1.489 4.908 1.492 5.25.003 9.522-4.261 9.525-9.516.001-2.546-.988-4.941-2.787-6.742-1.8-1.801-4.19-2.793-6.736-2.794-5.255 0-9.526 4.264-9.53 9.52-.001 1.703.46 3.361 1.332 4.821l-.974 3.557 3.654-.959zM17.43 14.13c-.3-.15-1.771-.875-2.045-.975-.275-.1-.475-.15-.675.15-.2.3-.775.975-.95 1.175-.175.2-.35.225-.65.075-1.012-.506-1.722-.884-2.404-2.05-.174-.298.174-.277.498-.925.075-.15.038-.275-.019-.387-.056-.113-.475-1.144-.65-1.569-.17-.409-.344-.353-.475-.36l-.406-.008c-.15 0-.394.056-.6.281-.206.225-.788.769-.788 1.875s.806 2.169.919 2.319c.113.15 1.588 2.425 3.844 3.4.536.232.956.37 1.282.474.538.171 1.027.147 1.413.089.431-.064 1.326-.541 1.513-1.062.187-.522.187-.969.131-1.062-.056-.094-.206-.15-.506-.3z"/>
</svg>
